<svg width="205" height="201" viewBox="0 0 205 201" fill="none" xmlns="http://www.w3.org/2000/svg">
<path d="M170.037 18.1049C173.403 16.239 177.526 18.7165 177.459 22.5648L176.946 52.0052C176.934 52.685 176.79 53.3163 176.547 53.8861C176.844 55.3261 177 56.8174 177 58.3451V127.484L197.68 163.303C200.832 168.762 196.744 175.23 190.56 174.012C186.179 173.149 181.204 171.897 176.241 170.088C173.715 179.453 165.163 186.345 155 186.345H132.984C132.965 186.569 132.929 186.788 132.874 187C132.957 187.32 133 187.655 133 188V192C133 194.209 131.209 196 129 196C126.791 196 125.001 194.209 125 192C125 194.209 123.209 196 121 196C118.791 196 117.001 194.209 117 192C117 194.209 115.209 196 113 196C110.791 196 109.001 194.209 109 192V188C109 187.655 109.044 187.32 109.126 187C109.072 186.788 109.035 186.569 109.016 186.345H95.9838C95.9646 186.569 95.929 186.788 95.8744 187C95.9566 187.32 96.0004 187.655 96.0004 188V192C96.0002 194.209 94.2092 196 92.0004 196C89.7914 196 88.0006 194.209 88.0004 192C88.0002 194.209 86.2092 196 84.0004 196C81.7914 196 80.0006 194.209 80.0004 192C80.0002 194.209 78.2092 196 76.0004 196C73.7914 196 72.0006 194.209 72.0004 192V188C72.0004 187.655 72.0441 187.32 72.1264 187C72.0717 186.788 72.0352 186.569 72.016 186.345H49.0004C38.9483 186.345 30.4703 179.603 27.8422 170.395C23.1669 172.038 18.5129 173.199 14.3851 174.012C8.20064 175.23 4.11261 168.762 7.26405 163.303L27.0004 129.119V58.3451C27.0004 57.036 27.1141 55.7534 27.3334 54.5072C27.0132 53.8683 26.8228 53.1415 26.809 52.35L26.2943 22.9095C26.2274 19.0614 30.3519 16.5836 33.7181 18.4496L59.4711 32.725C60.9316 33.5346 61.7741 34.8984 61.9906 36.3451H87.6L81.4389 25.8822C79.4761 22.5492 81.8786 18.3454 85.7465 18.3451H89.5306C91.7802 18.3452 93.7531 19.8473 94.351 22.016L96.0004 28.0004C96.3851 29.0837 98.0052 28.6737 97.8285 27.5375L96.6928 20.2357C96.5383 19.2424 97.3067 18.3452 98.3119 18.3451H109.543C110.376 18.3451 111.012 19.0878 110.884 19.9105L109.6 28.1722C109.463 29.0524 110.732 29.3496 111 28.5004L113.088 21.847C113.743 19.763 115.674 18.3451 117.859 18.3451H121.253C125.121 18.3454 127.524 22.5492 125.561 25.8822L119.4 36.3451H141.724C141.851 34.7728 142.707 33.253 144.284 32.3793L170.037 18.1049Z" fill="white" fill-opacity="0.5"/>
<path d="M168.824 15.9187C173.874 13.12 180.059 16.8357 179.959 22.6081L179.445 52.0485C179.433 52.7612 179.32 53.4424 179.128 54.0827C179.371 55.4678 179.5 56.8924 179.5 58.3454V126.814L199.845 162.053C201.891 165.598 201.631 169.59 199.715 172.527C197.777 175.497 194.205 177.277 190.077 176.465C186.313 175.723 182.102 174.696 177.815 173.279C174.245 182.39 165.381 188.845 155 188.845H135.5V192.001C135.5 195.59 132.59 198.5 129.001 198.501H129C127.491 198.501 126.103 197.984 125 197.121C123.897 197.984 122.51 198.5 121.001 198.501H121C119.491 198.501 118.103 197.984 117 197.121C115.897 197.984 114.51 198.5 113.001 198.501H113C109.41 198.5 106.5 195.59 106.5 192.001V188.845H98.5V192.001C98.4996 195.59 95.5901 198.5 92.001 198.501H92C90.4907 198.501 89.1031 197.984 88 197.121C86.8969 197.984 85.5098 198.5 84.001 198.501H84C82.4907 198.501 81.1031 197.984 80 197.121C78.8969 197.984 77.5098 198.5 76.001 198.501H76C72.4103 198.5 69.5004 195.59 69.5 192.001V188.845H49C38.7226 188.845 29.9288 182.518 26.29 173.55C22.2952 174.827 18.3876 175.771 14.8682 176.465C10.7406 177.278 7.16783 175.498 5.22949 172.528C3.31313 169.591 3.05253 165.598 5.09863 162.053L24.5 128.449V58.3454C24.5 57.1499 24.5867 55.9722 24.7529 54.819C24.481 54.0648 24.3245 53.2499 24.3096 52.3933L23.7949 22.9528C23.6947 17.1804 29.8806 13.4648 34.9297 16.2634H34.9307L60.6836 30.5388C62.1283 31.3398 63.1723 32.5148 63.8086 33.8454H83.2266L79.2842 27.1511C76.3402 22.1518 79.9441 15.846 85.7461 15.8454H89.5312C91.516 15.8456 93.3564 16.626 94.7188 17.9304C95.4268 16.6954 96.7567 15.8456 98.3115 15.8454H109.543C110.975 15.8454 112.202 16.6191 112.867 17.7478C114.209 16.5515 115.971 15.8455 117.858 15.8454H121.254C127.056 15.8461 130.659 22.1519 127.715 27.1511L123.772 33.8454H139.792C140.406 32.3745 141.5 31.064 143.071 30.1931L168.824 15.9187Z" stroke="white" stroke-opacity="0.51" stroke-width="5"/>
<path d="M151.976 152.141C159.754 165.612 177.711 171.482 190.56 174.012C196.744 175.231 200.832 168.762 197.68 163.303L165.513 107.587C162.403 102.201 154.875 102.414 152.747 108.258C148.334 120.376 144.165 138.612 151.976 152.141Z" fill="url(#paint0_linear_86_371)"/>
<path d="M52.9684 152.141C45.1913 165.612 27.2341 171.482 14.3852 174.012C8.20059 175.231 4.11268 168.762 7.26439 163.303L39.4318 107.587C42.5417 102.201 50.0694 102.414 52.1978 108.258C56.611 120.376 60.7798 138.612 52.9684 152.141Z" fill="url(#paint1_linear_86_371)"/>
<path d="M125.561 25.8822C127.524 22.549 125.121 18.345 121.253 18.345H117.859C115.674 18.345 113.743 19.7631 113.088 21.8474L111 28.5C110.731 29.3496 109.463 29.0524 109.6 28.1719L110.885 19.9105C111.013 19.0878 110.376 18.345 109.544 18.345H98.3122C97.3068 18.345 96.5386 19.2419 96.693 20.2353L97.8284 27.5379C98.0051 28.6744 96.3845 29.0839 96 28L94.3506 22.0163C93.7528 19.8475 91.7801 18.345 89.5304 18.345H85.747C81.8788 18.345 79.4757 22.549 81.4385 25.8821L99.1913 56.0287C101.125 59.3125 105.874 59.3125 107.808 56.0288L125.561 25.8822Z" fill="url(#paint2_linear_86_371)"/>
<rect x="27" y="36.345" width="150" height="150" rx="22" fill="url(#paint3_linear_86_371)"/>
<path d="M170.036 18.1046C173.403 16.2386 177.527 18.7165 177.459 22.565L176.946 52.0053C176.878 55.8538 172.67 58.1863 169.371 56.2039L144.132 41.0387C140.833 39.0563 140.917 34.2458 144.283 32.3798L170.036 18.1046Z" fill="url(#paint4_linear_86_371)"/>
<path d="M33.718 18.4496C30.3516 16.5835 26.2276 19.0615 26.2947 22.9099L26.8086 52.3503C26.8758 56.1987 31.0838 58.5313 34.383 56.5489L59.6222 41.3837C62.9215 39.4013 62.8375 34.5908 59.4711 32.7247L33.718 18.4496Z" fill="url(#paint5_linear_86_371)"/>
<rect x="96" y="182" width="8" height="24" rx="4" transform="rotate(90 96 182)" fill="#1D1551"/>
<rect width="8" height="12" rx="4" transform="matrix(-1 0 0 1 80 184)" fill="#1D1551"/>
<rect width="8" height="12" rx="4" transform="matrix(-1 0 0 1 88 184)" fill="#1D1551"/>
<rect width="8" height="12" rx="4" transform="matrix(-1 0 0 1 96 184)" fill="#1D1551"/>
<rect x="133" y="182" width="8" height="24" rx="4" transform="rotate(90 133 182)" fill="#1D1551"/>
<rect width="8" height="12" rx="4" transform="matrix(-1 0 0 1 117 184)" fill="#1D1551"/>
<rect width="8" height="12" rx="4" transform="matrix(-1 0 0 1 125 184)" fill="#1D1551"/>
<rect width="8" height="12" rx="4" transform="matrix(-1 0 0 1 133 184)" fill="#1D1551"/>
<path d="M70.21 58.9597C87.4465 58.9598 101.419 73.3986 101.419 91.2097C101.419 109.021 87.4465 123.46 70.21 123.46C52.9733 123.46 39 109.021 39 91.2097C39 73.3985 52.9733 58.9597 70.21 58.9597Z" fill="#FBFBFE"/>
<path d="M70.21 58.9597C87.4465 58.9598 101.419 73.3986 101.419 91.2097C101.419 109.021 87.4465 123.46 70.21 123.46C52.9733 123.46 39 109.021 39 91.2097C39 73.3985 52.9733 58.9597 70.21 58.9597Z" stroke="#A6A6A6"/>
<path d="M136.791 58.9597C154.027 58.9598 168 73.3986 168 91.2097C168 109.021 154.027 123.46 136.791 123.46C119.554 123.46 105.581 109.021 105.581 91.2097C105.581 73.3985 119.554 58.9597 136.791 58.9597Z" fill="#FBFBFE"/>
<path d="M136.791 58.9597C154.027 58.9598 168 73.3986 168 91.2097C168 109.021 154.027 123.46 136.791 123.46C119.554 123.46 105.581 109.021 105.581 91.2097C105.581 73.3985 119.554 58.9597 136.791 58.9597Z" stroke="#A6A6A6"/>
<rect x="87.8951" y="101.613" width="14.5645" height="20.8065" rx="7.28226" transform="rotate(180 87.8951 101.613)" fill="#1D1551"/>
<rect x="133.669" y="101.613" width="14.5645" height="20.8065" rx="7.28226" transform="rotate(180 133.669 101.613)" fill="#1D1551"/>
<path d="M104.5 129.124C103.881 129.482 103.119 129.482 102.5 129.124L93.747 124.071C91.9749 123.048 92.7008 120.339 94.747 120.339H112.253C114.299 120.339 115.025 123.048 113.253 124.071L104.5 129.124Z" fill="url(#paint6_linear_86_371)"/>
<path d="M102.266 106.741C102.991 106.173 104.009 106.173 104.734 106.741L117.858 117.025C119.354 118.197 118.525 120.599 116.625 120.599H90.3753C88.4746 120.599 87.6457 118.197 89.1418 117.025L102.266 106.741Z" fill="#E00070"/>
<defs>
<linearGradient id="paint0_linear_86_371" x1="152.25" y1="152.615" x2="181.695" y2="135.615" gradientUnits="userSpaceOnUse">
<stop stop-color="#1D1551"/>
<stop offset="1" stop-color="#422FB7"/>
</linearGradient>
<linearGradient id="paint1_linear_86_371" x1="52.6948" y1="152.615" x2="23.25" y2="135.615" gradientUnits="userSpaceOnUse">
<stop stop-color="#1D1551"/>
<stop offset="1" stop-color="#422FB7"/>
</linearGradient>
<linearGradient id="paint2_linear_86_371" x1="103.5" y1="63.345" x2="103.5" y2="18.345" gradientUnits="userSpaceOnUse">
<stop stop-color="#1D1551"/>
<stop offset="1" stop-color="#422FB7"/>
</linearGradient>
<linearGradient id="paint3_linear_86_371" x1="102" y1="36.345" x2="102" y2="186.345" gradientUnits="userSpaceOnUse">
<stop stop-color="#1D1551"/>
<stop offset="1" stop-color="#422FB7"/>
</linearGradient>
<linearGradient id="paint4_linear_86_371" x1="177.611" y1="13.906" x2="149.799" y2="60.1931" gradientUnits="userSpaceOnUse">
<stop stop-color="#1D1551"/>
<stop offset="1" stop-color="#422FB7"/>
</linearGradient>
<linearGradient id="paint5_linear_86_371" x1="26.1436" y1="14.251" x2="53.9556" y2="60.538" gradientUnits="userSpaceOnUse">
<stop stop-color="#1D1551"/>
<stop offset="1" stop-color="#422FB7"/>
</linearGradient>
<linearGradient id="paint6_linear_86_371" x1="103.5" y1="129.702" x2="103.5" y2="117.218" gradientUnits="userSpaceOnUse">
<stop stop-color="#E00070"/>
<stop offset="1" stop-color="#7A003D"/>
</linearGradient>
</defs>
</svg>
