<svg width="550" height="550" viewBox="0 0 550 550" fill="none" xmlns="http://www.w3.org/2000/svg">
<rect width="550" height="550" fill="#220CAC"/>
<path d="M170.212 164C224.452 164 268.423 209.437 268.423 265.485C268.423 321.534 224.452 366.971 170.212 366.971C115.971 366.971 72 321.534 72 265.485C72 209.437 115.971 164 170.212 164Z" fill="#FBFBFE"/>
<path d="M170.212 164C224.452 164 268.423 209.437 268.423 265.485C268.423 321.534 224.452 366.971 170.212 366.971C115.971 366.971 72 321.534 72 265.485C72 209.437 115.971 164 170.212 164Z" stroke="#A6A6A6"/>
<path d="M379.729 164C433.97 164 477.94 209.437 477.94 265.485C477.94 321.534 433.97 366.971 379.729 366.971C325.489 366.971 281.518 321.534 281.518 265.485C281.518 209.437 325.489 164 379.729 164Z" fill="#FBFBFE"/>
<path d="M379.729 164C433.97 164 477.94 209.437 477.94 265.485C477.94 321.534 433.97 366.971 379.729 366.971C325.489 366.971 281.518 321.534 281.518 265.485C281.518 209.437 325.489 164 379.729 164Z" stroke="#A6A6A6"/>
<rect x="225.865" y="298.222" width="45.8321" height="65.4744" rx="22.916" transform="rotate(180 225.865 298.222)" fill="#1D1551"/>
<rect x="369.909" y="298.222" width="45.8321" height="65.4744" rx="22.916" transform="rotate(180 369.909 298.222)" fill="#1D1551"/>
<path d="M277.471 385.169C275.924 386.062 274.018 386.062 272.471 385.169L240.099 366.479C235.668 363.922 237.483 357.149 242.599 357.149H307.342C312.458 357.149 314.273 363.922 309.842 366.479L277.471 385.169Z" fill="url(#paint0_linear_420_792)"/>
<path d="M271.886 313.734C273.697 312.315 276.243 312.315 278.054 313.734L323.104 349.032C326.844 351.963 324.772 357.968 320.02 357.968H229.921C225.169 357.968 223.097 351.963 226.837 349.032L271.886 313.734Z" fill="#E00070"/>
<defs>
<linearGradient id="paint0_linear_420_792" x1="274.971" y1="386.613" x2="274.971" y2="347.328" gradientUnits="userSpaceOnUse">
<stop stop-color="#E00070"/>
<stop offset="1" stop-color="#7A003D"/>
</linearGradient>
</defs>
</svg>
