<svg width="122" height="175" viewBox="0 0 122 175" fill="none" xmlns="http://www.w3.org/2000/svg">
<path d="M120.996 115.642C121.366 116.366 121.261 117.241 120.732 117.857L72.9522 173.43C71.7337 174.848 69.41 173.968 69.4359 172.099L69.8559 141.727C69.8628 141.226 70.0575 140.746 70.4014 140.382L88.5076 121.202C89.7118 119.926 88.8075 117.829 87.0533 117.829H34.1618C32.4076 117.829 31.5033 119.926 32.7075 121.202L50.8137 140.382C51.1576 140.746 51.3523 141.226 51.3592 141.727L51.7792 172.099C51.8051 173.968 49.4814 174.848 48.2629 173.43L0.483421 117.857C-0.0462858 117.241 -0.150608 116.366 0.219469 115.642L58.827 1.08909C59.5699 -0.362992 61.6451 -0.362999 62.388 1.08908L120.996 115.642ZM36.9017 94.7964C36.2449 96.1256 37.2121 97.6823 38.6947 97.6823H82.5204C84.003 97.6823 84.9702 96.1256 84.3134 94.7964L62.4006 50.4488C61.6667 48.9634 59.5484 48.9634 58.8145 50.4488L36.9017 94.7964Z" fill="white"/>
</svg>
