<svg width="386" height="145" viewBox="0 0 386 145" fill="none" xmlns="http://www.w3.org/2000/svg">
<path d="M0.610597 94.8509C0.24125 95.5737 0.3454 96.4481 0.874204 97.0639L38.4434 140.815C39.6614 142.234 41.9863 141.354 41.9605 139.485L41.6395 116.246C41.6326 115.746 41.4383 115.266 41.0949 114.902L27.2485 100.216C26.0455 98.9402 26.9501 96.844 28.7037 96.844H69.453C71.2066 96.844 72.1111 98.9402 70.9082 100.216L57.0617 114.902C56.7184 115.266 56.524 115.746 56.5171 116.246L56.1961 139.485C56.1703 141.354 58.4953 142.234 59.7133 140.815L97.2824 97.0639C97.8112 96.4481 97.9154 95.5738 97.546 94.8509L50.8593 3.48532C50.1167 2.03205 48.04 2.03205 47.2974 3.48532L0.610597 94.8509ZM67.8747 77.7296C68.5306 79.0588 67.5634 80.6147 66.0812 80.6147H32.0754C30.5932 80.6147 29.626 79.0588 30.2819 77.7296L47.2848 43.2764C48.0184 41.7898 50.1382 41.7898 50.8718 43.2764L67.8747 77.7296Z" fill="#FBFBFE"/>
<mask id="path-2-outside-1_420_787" maskUnits="userSpaceOnUse" x="108.157" y="59.9213" width="260" height="62" fill="black">
<rect fill="white" x="108.157" y="59.9213" width="260" height="62"/>
<path d="M135.037 68.8893V120.921H125.437V68.8893H109.597V60.9213H150.877V68.8893H135.037ZM170.553 94.7133V112.953H196.953V120.921H160.953V60.9213H196.665L195.513 68.8893H170.553V87.1293H193.305V94.7133H170.553ZM210.839 120.921V60.9213H220.151L243.383 98.3613C244.343 99.9613 244.983 101.113 245.303 101.817C245.623 102.457 245.815 103.289 245.879 104.313H246.455V60.9213H256.055V120.921H246.743L223.511 83.4813C222.551 81.8813 221.911 80.7613 221.591 80.1213C221.335 79.4173 221.143 78.5533 221.015 77.5293H220.439V120.921H210.839ZM283.428 94.7133V112.953H309.828V120.921H273.828V60.9213H309.54L308.388 68.8893H283.428V87.1293H306.18V94.7133H283.428ZM316.034 120.921L333.794 60.9213H348.29L366.05 120.921H356.45L341.474 69.7533H340.61L325.634 120.921H316.034ZM324.866 107.481V99.8973H357.41V107.481H324.866Z"/>
</mask>
<path d="M135.037 68.8893V120.921H125.437V68.8893H109.597V60.9213H150.877V68.8893H135.037ZM170.553 94.7133V112.953H196.953V120.921H160.953V60.9213H196.665L195.513 68.8893H170.553V87.1293H193.305V94.7133H170.553ZM210.839 120.921V60.9213H220.151L243.383 98.3613C244.343 99.9613 244.983 101.113 245.303 101.817C245.623 102.457 245.815 103.289 245.879 104.313H246.455V60.9213H256.055V120.921H246.743L223.511 83.4813C222.551 81.8813 221.911 80.7613 221.591 80.1213C221.335 79.4173 221.143 78.5533 221.015 77.5293H220.439V120.921H210.839ZM283.428 94.7133V112.953H309.828V120.921H273.828V60.9213H309.54L308.388 68.8893H283.428V87.1293H306.18V94.7133H283.428ZM316.034 120.921L333.794 60.9213H348.29L366.05 120.921H356.45L341.474 69.7533H340.61L325.634 120.921H316.034ZM324.866 107.481V99.8973H357.41V107.481H324.866Z" fill="#FBFBFE"/>
<path d="M135.037 68.8893V67.8893H134.037V68.8893H135.037ZM135.037 120.921V121.921H136.037V120.921H135.037ZM125.437 120.921H124.437V121.921H125.437V120.921ZM125.437 68.8893H126.437V67.8893H125.437V68.8893ZM109.597 68.8893H108.597V69.8893H109.597V68.8893ZM109.597 60.9213V59.9213H108.597V60.9213H109.597ZM150.877 60.9213H151.877V59.9213H150.877V60.9213ZM150.877 68.8893V69.8893H151.877V68.8893H150.877ZM135.037 68.8893H134.037V120.921H135.037H136.037V68.8893H135.037ZM135.037 120.921V119.921H125.437V120.921V121.921H135.037V120.921ZM125.437 120.921H126.437V68.8893H125.437H124.437V120.921H125.437ZM125.437 68.8893V67.8893H109.597V68.8893V69.8893H125.437V68.8893ZM109.597 68.8893H110.597V60.9213H109.597H108.597V68.8893H109.597ZM109.597 60.9213V61.9213H150.877V60.9213V59.9213H109.597V60.9213ZM150.877 60.9213H149.877V68.8893H150.877H151.877V60.9213H150.877ZM150.877 68.8893V67.8893H135.037V68.8893V69.8893H150.877V68.8893ZM170.553 94.7133V93.7133H169.553V94.7133H170.553ZM170.553 112.953H169.553V113.953H170.553V112.953ZM196.953 112.953H197.953V111.953H196.953V112.953ZM196.953 120.921V121.921H197.953V120.921H196.953ZM160.953 120.921H159.953V121.921H160.953V120.921ZM160.953 60.9213V59.9213H159.953V60.9213H160.953ZM196.665 60.9213L197.655 61.0644L197.82 59.9213H196.665V60.9213ZM195.513 68.8893V69.8893H196.379L196.503 69.0323L195.513 68.8893ZM170.553 68.8893V67.8893H169.553V68.8893H170.553ZM170.553 87.1293H169.553V88.1293H170.553V87.1293ZM193.305 87.1293H194.305V86.1293H193.305V87.1293ZM193.305 94.7133V95.7133H194.305V94.7133H193.305ZM170.553 94.7133H169.553V112.953H170.553H171.553V94.7133H170.553ZM170.553 112.953V113.953H196.953V112.953V111.953H170.553V112.953ZM196.953 112.953H195.953V120.921H196.953H197.953V112.953H196.953ZM196.953 120.921V119.921H160.953V120.921V121.921H196.953V120.921ZM160.953 120.921H161.953V60.9213H160.953H159.953V120.921H160.953ZM160.953 60.9213V61.9213H196.665V60.9213V59.9213H160.953V60.9213ZM196.665 60.9213L195.675 60.7782L194.523 68.7462L195.513 68.8893L196.503 69.0323L197.655 61.0644L196.665 60.9213ZM195.513 68.8893V67.8893H170.553V68.8893V69.8893H195.513V68.8893ZM170.553 68.8893H169.553V87.1293H170.553H171.553V68.8893H170.553ZM170.553 87.1293V88.1293H193.305V87.1293V86.1293H170.553V87.1293ZM193.305 87.1293H192.305V94.7133H193.305H194.305V87.1293H193.305ZM193.305 94.7133V93.7133H170.553V94.7133V95.7133H193.305V94.7133ZM210.839 120.921H209.839V121.921H210.839V120.921ZM210.839 60.9213V59.9213H209.839V60.9213H210.839ZM220.151 60.9213L221.001 60.394L220.708 59.9213H220.151V60.9213ZM243.383 98.3613L244.241 97.8468L244.237 97.8404L244.233 97.834L243.383 98.3613ZM245.303 101.817L244.393 102.231L244.401 102.248L244.409 102.264L245.303 101.817ZM245.879 104.313L244.881 104.376L244.94 105.313H245.879V104.313ZM246.455 104.313V105.313H247.455V104.313H246.455ZM246.455 60.9213V59.9213H245.455V60.9213H246.455ZM256.055 60.9213H257.055V59.9213H256.055V60.9213ZM256.055 120.921V121.921H257.055V120.921H256.055ZM246.743 120.921L245.894 121.449L246.187 121.921H246.743V120.921ZM223.511 83.4813L222.654 83.9958L222.658 84.0022L222.662 84.0085L223.511 83.4813ZM221.591 80.1213L220.651 80.463L220.671 80.517L220.697 80.5685L221.591 80.1213ZM221.015 77.5293L222.008 77.4052L221.898 76.5293H221.015V77.5293ZM220.439 77.5293V76.5293H219.439V77.5293H220.439ZM220.439 120.921V121.921H221.439V120.921H220.439ZM210.839 120.921H211.839V60.9213H210.839H209.839V120.921H210.839ZM210.839 60.9213V61.9213H220.151V60.9213V59.9213H210.839V60.9213ZM220.151 60.9213L219.302 61.4485L242.534 98.8885L243.383 98.3613L244.233 97.834L221.001 60.394L220.151 60.9213ZM243.383 98.3613L242.526 98.8758C243.486 100.476 244.099 101.584 244.393 102.231L245.303 101.817L246.214 101.403C245.868 100.642 245.201 99.4467 244.241 97.8468L243.383 98.3613ZM245.303 101.817L244.409 102.264C244.649 102.744 244.822 103.432 244.881 104.376L245.879 104.313L246.877 104.251C246.808 103.147 246.598 102.17 246.198 101.37L245.303 101.817ZM245.879 104.313V105.313H246.455V104.313V103.313H245.879V104.313ZM246.455 104.313H247.455V60.9213H246.455H245.455V104.313H246.455ZM246.455 60.9213V61.9213H256.055V60.9213V59.9213H246.455V60.9213ZM256.055 60.9213H255.055V120.921H256.055H257.055V60.9213H256.055ZM256.055 120.921V119.921H246.743V120.921V121.921H256.055V120.921ZM246.743 120.921L247.593 120.394L224.361 82.954L223.511 83.4813L222.662 84.0085L245.894 121.449L246.743 120.921ZM223.511 83.4813L224.369 82.9668C223.408 81.3648 222.786 80.2753 222.486 79.674L221.591 80.1213L220.697 80.5685C221.036 81.2472 221.695 82.3978 222.654 83.9958L223.511 83.4813ZM221.591 80.1213L222.531 79.7795C222.308 79.1667 222.129 78.3806 222.008 77.4052L221.015 77.5293L220.023 77.6533C220.157 78.7259 220.362 79.6679 220.651 80.463L221.591 80.1213ZM221.015 77.5293V76.5293H220.439V77.5293V78.5293H221.015V77.5293ZM220.439 77.5293H219.439V120.921H220.439H221.439V77.5293H220.439ZM220.439 120.921V119.921H210.839V120.921V121.921H220.439V120.921ZM283.428 94.7133V93.7133H282.428V94.7133H283.428ZM283.428 112.953H282.428V113.953H283.428V112.953ZM309.828 112.953H310.828V111.953H309.828V112.953ZM309.828 120.921V121.921H310.828V120.921H309.828ZM273.828 120.921H272.828V121.921H273.828V120.921ZM273.828 60.9213V59.9213H272.828V60.9213H273.828ZM309.54 60.9213L310.53 61.0644L310.695 59.9213H309.54V60.9213ZM308.388 68.8893V69.8893H309.254L309.378 69.0323L308.388 68.8893ZM283.428 68.8893V67.8893H282.428V68.8893H283.428ZM283.428 87.1293H282.428V88.1293H283.428V87.1293ZM306.18 87.1293H307.18V86.1293H306.18V87.1293ZM306.18 94.7133V95.7133H307.18V94.7133H306.18ZM283.428 94.7133H282.428V112.953H283.428H284.428V94.7133H283.428ZM283.428 112.953V113.953H309.828V112.953V111.953H283.428V112.953ZM309.828 112.953H308.828V120.921H309.828H310.828V112.953H309.828ZM309.828 120.921V119.921H273.828V120.921V121.921H309.828V120.921ZM273.828 120.921H274.828V60.9213H273.828H272.828V120.921H273.828ZM273.828 60.9213V61.9213H309.54V60.9213V59.9213H273.828V60.9213ZM309.54 60.9213L308.55 60.7782L307.398 68.7462L308.388 68.8893L309.378 69.0323L310.53 61.0644L309.54 60.9213ZM308.388 68.8893V67.8893H283.428V68.8893V69.8893H308.388V68.8893ZM283.428 68.8893H282.428V87.1293H283.428H284.428V68.8893H283.428ZM283.428 87.1293V88.1293H306.18V87.1293V86.1293H283.428V87.1293ZM306.18 87.1293H305.18V94.7133H306.18H307.18V87.1293H306.18ZM306.18 94.7133V93.7133H283.428V94.7133V95.7133H306.18V94.7133ZM316.034 120.921L315.075 120.637L314.695 121.921H316.034V120.921ZM333.794 60.9213V59.9213H333.047L332.835 60.6374L333.794 60.9213ZM348.29 60.9213L349.249 60.6374L349.037 59.9213H348.29V60.9213ZM366.05 120.921V121.921H367.389L367.009 120.637L366.05 120.921ZM356.45 120.921L355.491 121.202L355.701 121.921H356.45V120.921ZM341.474 69.7533L342.434 69.4724L342.224 68.7533H341.474V69.7533ZM340.61 69.7533V68.7533H339.861L339.65 69.4724L340.61 69.7533ZM325.634 120.921V121.921H326.384L326.594 121.202L325.634 120.921ZM324.866 107.481H323.866V108.481H324.866V107.481ZM324.866 99.8973V98.8973H323.866V99.8973H324.866ZM357.41 99.8973H358.41V98.8973H357.41V99.8973ZM357.41 107.481V108.481H358.41V107.481H357.41ZM316.034 120.921L316.993 121.205L334.753 61.2051L333.794 60.9213L332.835 60.6374L315.075 120.637L316.034 120.921ZM333.794 60.9213V61.9213H348.29V60.9213V59.9213H333.794V60.9213ZM348.29 60.9213L347.331 61.2051L365.091 121.205L366.05 120.921L367.009 120.637L349.249 60.6374L348.29 60.9213ZM366.05 120.921V119.921H356.45V120.921V121.921H366.05V120.921ZM356.45 120.921L357.41 120.64L342.434 69.4724L341.474 69.7533L340.514 70.0342L355.491 121.202L356.45 120.921ZM341.474 69.7533V68.7533H340.61V69.7533V70.7533H341.474V69.7533ZM340.61 69.7533L339.65 69.4724L324.674 120.64L325.634 120.921L326.594 121.202L341.57 70.0342L340.61 69.7533ZM325.634 120.921V119.921H316.034V120.921V121.921H325.634V120.921ZM324.866 107.481H325.866V99.8973H324.866H323.866V107.481H324.866ZM324.866 99.8973V100.897H357.41V99.8973V98.8973H324.866V99.8973ZM357.41 99.8973H356.41V107.481H357.41H358.41V99.8973H357.41ZM357.41 107.481V106.481H324.866V107.481V108.481H357.41V107.481Z" fill="#FBFBFE" mask="url(#path-2-outside-1_420_787)"/>
</svg>
